<svg width="512" height="512" viewBox="0 0 512 512" fill="none" xmlns="http://www.w3.org/2000/svg">
<path fill-rule="evenodd" clip-rule="evenodd" d="M382.686 111.259C382.686 169.24 429.69 216.247 487.672 216.247C495.898 216.247 503.902 215.299 511.582 213.509C496.036 252.042 458.284 279.238 414.181 279.238C356.199 279.238 309.195 232.233 309.195 174.25C309.195 124.494 343.809 82.8209 390.27 72C385.38 84.1281 382.686 97.3784 382.686 111.259Z" fill="url(#paint0_linear_207_325)"/>
<path d="M421.126 255.965H176.208C126.019 255.965 85.3334 296.651 85.3334 346.84C85.3334 397.028 126.019 437.714 176.208 437.714H421.126C471.314 437.714 512 397.028 512 346.84C512 296.651 471.314 255.965 421.126 255.965Z" fill="url(#paint1_linear_207_325)"/>
<path d="M183.965 439.931C285.567 439.931 367.931 357.567 367.931 255.965C367.931 154.364 285.567 72 183.965 72C82.3641 72 0 154.364 0 255.965C0 357.567 82.3641 439.931 183.965 439.931Z" fill="url(#paint2_linear_207_325)"/>
<defs>
<linearGradient id="paint0_linear_207_325" x1="410.389" y1="72" x2="410.389" y2="279.238" gradientUnits="userSpaceOnUse">
<stop stop-color="white"/>
<stop offset="1" stop-color="white" stop-opacity="0"/>
</linearGradient>
<linearGradient id="paint1_linear_207_325" x1="298.667" y1="255.965" x2="298.667" y2="437.714" gradientUnits="userSpaceOnUse">
<stop stop-color="#D9D9D9"/>
<stop offset="1" stop-color="#D9D9D9" stop-opacity="0"/>
</linearGradient>
<linearGradient id="paint2_linear_207_325" x1="183.965" y1="72" x2="183.965" y2="439.931" gradientUnits="userSpaceOnUse">
<stop stop-color="white"/>
<stop offset="1" stop-color="#D9D9D9" stop-opacity="0"/>
</linearGradient>
</defs>
</svg>
