<svg width="512" height="512" viewBox="0 0 512 512" fill="none" xmlns="http://www.w3.org/2000/svg">
<path d="M195.081 1.40062C193.482 2.10093 191.079 3.80169 189.88 5.2023C188.578 6.60292 166.969 60.9269 136.555 139.562C80.8308 283.526 83.3318 275.822 88.5342 283.126C92.9361 289.328 90.7351 289.128 167.069 289.128C225.894 289.128 236.599 289.328 236.599 290.528C236.599 291.328 225.396 337.25 211.589 392.672C197.882 448.098 186.578 495.218 186.578 497.42C186.578 507.425 195.782 514.228 205.486 511.325C207.486 510.727 210.187 509.225 211.288 508.024C214.29 504.822 422.582 180.38 424.382 176.078C427.285 169.275 423.783 160.271 417.08 157.47C414.379 156.369 402.673 156.069 353.652 156.069C320.637 156.069 293.624 155.769 293.624 155.469C293.624 155.169 307.131 124.255 323.638 86.8383C347.35 33.0145 353.652 17.8079 353.652 14.5064C353.652 9.40417 350.551 4.40195 345.648 1.90084C342.346 0.100044 338.344 0 270.115 0C212.29 0.100044 197.482 0.300133 195.081 1.40062Z" fill="url(#paint0_linear_207_325)"/>
<defs>
<linearGradient id="paint0_linear_207_325" x1="255.705" y1="0" x2="255.705" y2="512" gradientUnits="userSpaceOnUse">
<stop stop-color="#F8BE28"/>
<stop offset="1" stop-color="#F8BE28" stop-opacity="0"/>
</linearGradient>
</defs>
</svg>
