<svg width="512" height="512" viewBox="0 0 512 512" fill="none" xmlns="http://www.w3.org/2000/svg">
<g clip-path="url(#clip0_207_325)">
<path d="M421.126 255.965H176.208C126.019 255.965 85.3334 296.651 85.3334 346.84C85.3334 397.028 126.019 437.714 176.208 437.714H421.126C471.314 437.714 512 397.028 512 346.84C512 296.651 471.314 255.965 421.126 255.965Z" fill="url(#paint0_linear_207_325)"/>
<path d="M183.965 439.931C285.567 439.931 367.931 357.567 367.931 255.965C367.931 154.364 285.567 72 183.965 72C82.3641 72 0 154.364 0 255.965C0 357.567 82.3641 439.931 183.965 439.931Z" fill="url(#paint1_linear_207_325)"/>
</g>
<defs>
<linearGradient id="paint0_linear_207_325" x1="298.667" y1="255.965" x2="298.667" y2="437.714" gradientUnits="userSpaceOnUse">
<stop stop-color="#D9D9D9"/>
<stop offset="1" stop-color="#D9D9D9" stop-opacity="0"/>
</linearGradient>
<linearGradient id="paint1_linear_207_325" x1="183.965" y1="72" x2="183.965" y2="439.931" gradientUnits="userSpaceOnUse">
<stop stop-color="white"/>
<stop offset="1" stop-color="#D9D9D9" stop-opacity="0"/>
</linearGradient>
<clipPath id="clip0_207_325">
<rect width="512" height="367.931" fill="white" transform="translate(0 72)"/>
</clipPath>
</defs>
</svg>
