<svg width="512" height="512" viewBox="0 0 512 512" fill="none" xmlns="http://www.w3.org/2000/svg">
<path d="M406.069 189.552H211.862C153.358 189.552 105.931 236.979 105.931 295.483C105.931 353.987 153.358 401.414 211.862 401.414H406.069C464.573 401.414 512 353.987 512 295.483C512 236.979 464.573 189.552 406.069 189.552Z" fill="url(#paint0_linear_207_325)"/>
<path d="M194.207 401.414C301.465 401.414 388.414 314.465 388.414 207.207C388.414 99.9494 301.465 13 194.207 13C86.9494 13 0 99.9494 0 207.207C0 314.465 86.9494 401.414 194.207 401.414Z" fill="url(#paint1_linear_207_325)"/>
<path d="M449.104 425.69H60.6899C53.9863 425.69 48.552 431.124 48.552 437.828C48.552 444.531 53.9863 449.966 60.6899 449.966H449.104C455.807 449.966 461.242 444.531 461.242 437.828C461.242 431.124 455.807 425.69 449.104 425.69Z" fill="url(#paint2_linear_207_325)"/>
<path d="M400.552 474.242H109.242C102.538 474.242 97.1039 479.676 97.1039 486.38C97.1039 493.083 102.538 498.517 109.242 498.517H400.552C407.256 498.517 412.69 493.083 412.69 486.38C412.69 479.676 407.256 474.242 400.552 474.242Z" fill="url(#paint3_linear_207_325)"/>
<defs>
<linearGradient id="paint0_linear_207_325" x1="256" y1="13" x2="256" y2="498.517" gradientUnits="userSpaceOnUse">
<stop stop-color="#D9D9D9"/>
<stop offset="1" stop-color="#D9D9D9" stop-opacity="0"/>
</linearGradient>
<linearGradient id="paint1_linear_207_325" x1="256" y1="13" x2="256" y2="498.517" gradientUnits="userSpaceOnUse">
<stop stop-color="white"/>
<stop offset="1" stop-color="white" stop-opacity="0"/>
</linearGradient>
<linearGradient id="paint2_linear_207_325" x1="254.897" y1="425.69" x2="254.897" y2="498.517" gradientUnits="userSpaceOnUse">
<stop offset="0.546875" stop-color="white"/>
<stop offset="1" stop-color="white" stop-opacity="0"/>
</linearGradient>
<linearGradient id="paint3_linear_207_325" x1="254.897" y1="425.69" x2="254.897" y2="498.517" gradientUnits="userSpaceOnUse">
<stop offset="0.546875" stop-color="white"/>
<stop offset="1" stop-color="white" stop-opacity="0"/>
</linearGradient>
</defs>
</svg>
