<svg width="29" height="22" viewBox="0 0 29 22" fill="none" xmlns="http://www.w3.org/2000/svg">
<path d="M5.46505 9.99999C5.46505 9.99999 2.00005 13.0749 2.00005 15.3811C2.00005 17.2916 3.55139 18.8404 5.46505 18.8404C7.37872 18.8404 8.93005 17.2916 8.93005 15.3811C8.93005 13.0749 5.46505 9.99999 5.46505 9.99999Z" fill="#7D8AFF"/>
<path d="M17.4651 9.99999C17.4651 9.99999 14.0001 13.0749 14.0001 15.3811C14.0001 17.2916 15.5514 18.8404 17.4651 18.8404C19.3787 18.8404 20.9301 17.2916 20.9301 15.3811C20.9301 13.0749 17.4651 9.99999 17.4651 9.99999Z" fill="#7D8AFF"/>
<path d="M26.64 6.89539L21.0162 3.50089C20.7164 3.31996 20.3109 3.40595 20.1103 3.69296C19.9098 3.97996 19.9902 4.35929 20.29 4.54022L25.9138 7.93472C26.2136 8.11564 26.6191 8.02965 26.8197 7.74265C27.0202 7.45565 26.9398 7.07632 26.64 6.89539Z" fill="white"/>
<path d="M25.9138 3.50087L20.29 6.89537C19.9902 7.0763 19.9098 7.45563 20.1103 7.74263C20.3109 8.02963 20.7164 8.11562 21.0162 7.9347L26.64 4.5402C26.9398 4.35927 27.0202 3.97994 26.8197 3.69294C26.6191 3.40593 26.2136 3.31994 25.9138 3.50087Z" fill="white"/>
<path d="M22.7983 2.66667V8.76889C22.7983 9.13708 23.0968 9.43555 23.465 9.43555C23.8332 9.43555 24.1317 9.13708 24.1317 8.76889V2.66667C24.1317 2.29848 23.8332 2 23.465 2C23.0968 2 22.7983 2.29848 22.7983 2.66667Z" fill="white"/>
<path d="M14.64 6.89539L9.01616 3.50089C8.71641 3.31996 8.31085 3.40595 8.11032 3.69296C7.90979 3.97996 7.99023 4.35929 8.28997 4.54022L13.9138 7.93472C14.2136 8.11564 14.6191 8.02965 14.8197 7.74265C15.0202 7.45565 14.9398 7.07632 14.64 6.89539Z" fill="white"/>
<path d="M13.9138 3.50087L8.28997 6.89537C7.99023 7.0763 7.90979 7.45563 8.11032 7.74263C8.31085 8.02963 8.71641 8.11562 9.01616 7.9347L14.64 4.5402C14.9398 4.35927 15.0202 3.97994 14.8197 3.69294C14.6191 3.40593 14.2136 3.31994 13.9138 3.50087Z" fill="white"/>
<path d="M10.7983 2.66667V8.76889C10.7983 9.13708 11.0968 9.43555 11.465 9.43555C11.8332 9.43555 12.1317 9.13708 12.1317 8.76889V2.66667C12.1317 2.29848 11.8332 2 11.465 2C11.0968 2 10.7983 2.29848 10.7983 2.66667Z" fill="white"/>
</svg>
