<svg width="512" height="512" viewBox="0 0 512 512" fill="none" xmlns="http://www.w3.org/2000/svg">
<path d="M0 389.085V306.929L71.1491 265.851L142.298 306.929V389.085L71.1491 430.163L0 389.085Z" fill="url(#paint0_linear_207_325)"/>
<path d="M369.702 204.234V122.078L440.851 81L512 122.078V204.234L440.851 245.312L369.702 204.234Z" fill="url(#paint1_linear_207_325)"/>
<path d="M247.205 390.134V307.979L318.354 266.901L389.503 307.979V390.134L318.354 431.212L247.205 390.134Z" fill="url(#paint2_linear_207_325)"/>
<path d="M123.234 204.234V122.078L194.383 81L265.532 122.078V204.234L194.383 245.312L123.234 204.234Z" fill="url(#paint3_linear_207_325)"/>
<defs>
<linearGradient id="paint0_linear_207_325" x1="71.1491" y1="265.851" x2="71.1491" y2="430.163" gradientUnits="userSpaceOnUse">
<stop stop-color="#F5F5F5"/>
<stop offset="1" stop-color="#F5F5F5" stop-opacity="0"/>
</linearGradient>
<linearGradient id="paint1_linear_207_325" x1="440.851" y1="81" x2="440.851" y2="245.312" gradientUnits="userSpaceOnUse">
<stop stop-color="#F5F5F5"/>
<stop offset="1" stop-color="#F5F5F5" stop-opacity="0"/>
</linearGradient>
<linearGradient id="paint2_linear_207_325" x1="318.354" y1="266.901" x2="318.354" y2="431.212" gradientUnits="userSpaceOnUse">
<stop stop-color="#F5F5F5"/>
<stop offset="1" stop-color="#F5F5F5" stop-opacity="0"/>
</linearGradient>
<linearGradient id="paint3_linear_207_325" x1="194.383" y1="81" x2="194.383" y2="245.312" gradientUnits="userSpaceOnUse">
<stop stop-color="#F5F5F5"/>
<stop offset="1" stop-color="#F5F5F5" stop-opacity="0"/>
</linearGradient>
</defs>
</svg>
