<svg width="512" height="512" viewBox="0 0 512 512" fill="none" xmlns="http://www.w3.org/2000/svg">
<g clip-path="url(#clip0_207_325)">
<path d="M419.788 256.381H175.648C125.619 256.381 85.0623 296.938 85.0623 346.967C85.0623 396.996 125.619 437.553 175.648 437.553H419.788C469.818 437.553 510.374 396.996 510.374 346.967C510.374 296.938 469.818 256.381 419.788 256.381Z" fill="url(#paint0_linear_207_325)"/>
<path d="M183.381 439.762C284.66 439.762 366.762 357.66 366.762 256.381C366.762 155.103 284.66 73 183.381 73C82.1025 73 0 155.103 0 256.381C0 357.66 82.1025 439.762 183.381 439.762Z" fill="url(#paint1_linear_207_325)"/>
<path d="M408.189 279.58C465.234 279.58 511.479 233.335 511.479 176.29C511.479 119.244 465.234 73 408.189 73C351.143 73 304.899 119.244 304.899 176.29C304.899 233.335 351.143 279.58 408.189 279.58Z" fill="url(#paint2_linear_207_325)"/>
</g>
<defs>
<linearGradient id="paint0_linear_207_325" x1="297.718" y1="256.381" x2="297.718" y2="437.553" gradientUnits="userSpaceOnUse">
<stop stop-color="#D9D9D9"/>
<stop offset="1" stop-color="#D9D9D9" stop-opacity="0"/>
</linearGradient>
<linearGradient id="paint1_linear_207_325" x1="183.381" y1="73" x2="183.381" y2="439.762" gradientUnits="userSpaceOnUse">
<stop stop-color="white"/>
<stop offset="1" stop-color="#D9D9D9" stop-opacity="0"/>
</linearGradient>
<linearGradient id="paint2_linear_207_325" x1="408.189" y1="73" x2="408.189" y2="279.58" gradientUnits="userSpaceOnUse">
<stop stop-color="#F8BE28"/>
<stop offset="1" stop-color="#F8BE28" stop-opacity="0"/>
</linearGradient>
<clipPath id="clip0_207_325">
<rect width="512" height="366.762" fill="white" transform="translate(0 73)"/>
</clipPath>
</defs>
</svg>
