<svg width="29" height="22" viewBox="0 0 29 22" fill="none" xmlns="http://www.w3.org/2000/svg">
<rect width="8.43171" height="1.36414" rx="0.68207" transform="matrix(0.856134 0.516753 -0.572749 0.81973 2.78134 13.2623)" fill="white"/>
<rect width="8.43171" height="1.36414" rx="0.68207" transform="matrix(0.856134 -0.516753 0.572749 0.81973 2 17.6194)" fill="white"/>
<rect x="5.28271" y="20" width="8" height="1.43455" rx="0.717274" transform="rotate(-90 5.28271 20)" fill="white"/>
<rect width="8.43171" height="1.36414" rx="0.68207" transform="matrix(0.856134 0.516753 -0.572749 0.81973 8.78131 3.26233)" fill="white"/>
<rect width="8.43171" height="1.36414" rx="0.68207" transform="matrix(0.856134 -0.516753 0.572749 0.81973 8 7.61942)" fill="white"/>
<rect x="11.2827" y="9.99997" width="8" height="1.43455" rx="0.717274" transform="rotate(-90 11.2827 9.99997)" fill="white"/>
<rect width="8.43171" height="1.36414" rx="0.68207" transform="matrix(0.856134 0.516753 -0.572749 0.81973 19.7813 3.26233)" fill="white"/>
<rect width="8.43171" height="1.36414" rx="0.68207" transform="matrix(0.856134 -0.516753 0.572749 0.81973 19 7.61942)" fill="white"/>
<rect x="22.2827" y="9.99997" width="8" height="1.43455" rx="0.717274" transform="rotate(-90 22.2827 9.99997)" fill="white"/>
<rect width="8.43171" height="1.36414" rx="0.68207" transform="matrix(0.856134 0.516753 -0.572749 0.81973 13.7813 13.2623)" fill="white"/>
<rect width="8.43171" height="1.36414" rx="0.68207" transform="matrix(0.856134 -0.516753 0.572749 0.81973 13 17.6194)" fill="white"/>
<rect x="16.2827" y="20" width="8" height="1.43455" rx="0.717274" transform="rotate(-90 16.2827 20)" fill="white"/>
</svg>
