<svg width="29" height="22" viewBox="0 0 29 22" fill="none" xmlns="http://www.w3.org/2000/svg">
<path d="M11.4004 0.0601716C11.3317 0.0902497 11.2285 0.163297 11.177 0.223453C11.1211 0.283609 10.193 2.61681 8.88674 5.99416C6.49338 12.1774 6.6008 11.8465 6.82424 12.1602C7.0133 12.4266 6.91877 12.418 10.1973 12.418C12.7238 12.418 13.1836 12.4266 13.1836 12.4781C13.1836 12.5125 12.7024 14.4848 12.1094 16.8652C11.5207 19.2457 11.0352 21.2695 11.0352 21.3641C11.0352 21.7938 11.4305 22.086 11.8473 21.9613C11.9332 21.9356 12.0492 21.8711 12.0965 21.8195C12.2254 21.682 21.1715 7.74728 21.2488 7.56252C21.3735 7.27033 21.2231 6.88361 20.9352 6.7633C20.8192 6.71603 20.3164 6.70314 18.211 6.70314C16.793 6.70314 15.6328 6.69025 15.6328 6.67736C15.6328 6.66447 16.2129 5.33673 16.9219 3.7297C17.9403 1.41798 18.211 0.764859 18.211 0.623062C18.211 0.403922 18.0778 0.189078 17.8672 0.081656C17.7254 0.00431223 17.5535 1.53544e-05 14.6231 1.53544e-05C12.1395 0.00431223 11.5035 0.012906 11.4004 0.0601716Z" fill="#F8BE28"/>
</svg>
